<svg width="169" height="163" viewBox="0 0 169 163" fill="none" xmlns="http://www.w3.org/2000/svg">
<g id="Section 1">
<path d="M-2620 -2345C-2620 -2346.1 -2619.1 -2347 -2618 -2347H2606C2607.1 -2347 2608 -2346.1 2608 -2345V6349C2608 6350.1 2607.1 6351 2606 6351H-2618C-2619.1 6351 -2620 6350.1 -2620 6349V-2345Z" fill="#404040"/>
<g id="&#208;&#146;&#209;&#139;&#208;&#180;&#208;&#181;&#208;&#187;&#208;&#181;&#208;&#189;&#208;&#184;&#208;&#181; &#208;&#186;&#208;&#176;&#209;&#130;&#208;&#181;&#208;&#179;&#208;&#190;&#209;&#128;&#208;&#184;&#208;&#184; &#209;&#130;&#208;&#190;&#208;&#178;&#208;&#176;&#209;&#128;&#208;&#176;. &#208;&#146;&#208;&#176;&#209;&#128;&#208;&#184;&#208;&#176;&#208;&#189;&#209;&#130; 1 (&#208;&#152;&#209;&#129;&#208;&#191;&#208;&#190;&#208;&#187;&#209;&#140;&#208;&#183;&#209;&#131;&#208;&#181;&#208;&#188;&#209;&#139;&#208;&#185; &#208;&#178;&#208;&#176;&#209;&#128;&#208;&#184;&#208;&#176;&#208;&#189;&#209;&#130;)" filter="url(#filter0_d_0_1)">
<rect x="-950" y="-557" width="1442" height="803" fill="white" shape-rendering="crispEdges"/>
<g id="Frame">
<mask id="path-4-inside-1_0_1" fill="white">
<path d="M-950 -43H492V237H-950V-43Z"/>
</mask>
<path d="M-950 -43H492V237H-950V-43Z" fill="white"/>
<g id="Group">
<g id="Group_2">
<g id="Group_3">
<path id="Vector" d="M23.5635 32.1987L48.1194 56.1132C53.0354 60.9008 51.5507 68.7793 45.5313 71.7491L7.42276 34.636C10.4372 28.6654 18.7033 27.4655 23.5635 32.1987Z" fill="white" fill-opacity="0.7" stroke="#1E1E1E" stroke-width="0.5"/>
<path id="Vector_2" d="M133.353 139.121L133.354 139.122C138.207 143.814 136.948 151.893 130.803 154.794L92.6971 117.683C93.2027 116.753 93.7693 115.902 94.4839 115.206C98.2364 111.552 104.665 111.182 108.797 115.206L133.353 139.121Z" fill="white" fill-opacity="0.7" stroke="#1E1E1E" stroke-width="0.5"/>
<path id="Vector_3" d="M92.159 118.788L92.1594 118.788L92.1634 118.775C92.2318 118.553 92.3468 118.351 92.4768 118.132L130.349 155.016C117.962 160.535 102.203 160.55 85.8046 155.581C69.262 150.568 52.0893 140.487 37.115 125.904C22.1406 111.321 11.7904 94.6065 6.64394 78.5031C1.54099 62.5359 1.5592 47.1891 7.22921 35.111L45.0878 71.9466C45.0495 71.9666 45.0116 71.9866 44.9742 72.0064C44.9546 72.0167 44.9352 72.027 44.916 72.0371C44.7524 72.1232 44.595 72.2036 44.4321 72.2672C42.9084 72.8328 41.5973 73.6475 40.5385 74.6786C36.6007 78.5135 36.1963 85.0874 40.5385 89.3162L74.7033 122.589C80.2036 127.945 89.5324 125.893 92.159 118.788Z" fill="#BB0B32" stroke="#1E1E1E" stroke-width="0.5"/>
<g id="Group_4" opacity="0.1">
<g id="Vector_4">
<mask id="path-9-inside-2_0_1" fill="white">
<path d="M92.5655 117.869L92.4232 117.73C92.3876 117.8 92.352 117.869 92.3164 117.938C92.3876 117.904 92.4588 117.869 92.5655 117.869Z"/>
</mask>
<path d="M92.5655 117.869L92.4232 117.73C92.3876 117.8 92.352 117.869 92.3164 117.938C92.3876 117.904 92.4588 117.869 92.5655 117.869Z" fill="#717171"/>
<path d="M92.5655 117.869V118.369H93.7957L92.9144 117.511L92.5655 117.869ZM92.4232 117.73L92.772 117.372L92.2873 116.9L91.9784 117.502L92.4232 117.73ZM92.3164 117.938L91.8716 117.71L91.1863 119.045L92.5353 118.388L92.3164 117.938ZM92.9144 117.511L92.772 117.372L92.0743 118.089L92.2167 118.227L92.9144 117.511ZM91.9784 117.502C91.9691 117.52 91.981 117.497 91.9717 117.515C91.9705 117.517 91.9721 117.514 91.9709 117.517C91.9533 117.551 91.9875 117.484 91.97 117.518C91.9575 117.543 91.9817 117.496 91.9692 117.52C91.958 117.542 91.9795 117.5 91.9684 117.522C91.9683 117.522 91.9682 117.522 91.9681 117.522C91.9681 117.522 91.968 117.522 91.9679 117.522C91.9632 117.532 91.9722 117.514 91.9675 117.523C91.9675 117.523 91.9674 117.523 91.9673 117.524C91.9672 117.524 91.9672 117.524 91.9671 117.524C91.967 117.524 91.967 117.524 91.9669 117.524C91.9668 117.525 91.9668 117.525 91.9667 117.525C91.9615 117.535 91.9711 117.516 91.9659 117.526C91.9656 117.527 91.9653 117.528 91.965 117.528C91.9649 117.528 91.9585 117.541 91.9583 117.541C91.9485 117.56 91.9649 117.528 91.955 117.548C91.9513 117.555 91.9571 117.544 91.9533 117.551C91.9518 117.554 91.954 117.55 91.9525 117.552C91.9524 117.553 91.9524 117.553 91.9523 117.553C91.9522 117.553 91.9522 117.553 91.9521 117.553C91.9501 117.557 91.9536 117.55 91.9517 117.554C91.9496 117.558 91.9504 117.557 91.9483 117.561C91.9478 117.562 91.9472 117.563 91.9467 117.564C91.9427 117.572 91.949 117.559 91.945 117.567C91.9413 117.574 91.9471 117.563 91.9433 117.57C91.9363 117.584 91.9487 117.56 91.9417 117.574C91.9386 117.58 91.9444 117.568 91.9412 117.574C91.9412 117.575 91.9411 117.575 91.941 117.575C91.941 117.575 91.9409 117.575 91.9408 117.575C91.9408 117.575 91.9407 117.575 91.9406 117.576C91.9406 117.576 91.9405 117.576 91.9404 117.576C91.9404 117.576 91.94 117.577 91.94 117.577C91.9364 117.584 91.9432 117.571 91.9396 117.578C91.9395 117.578 91.9394 117.578 91.9394 117.578C91.9393 117.578 91.9392 117.578 91.9392 117.578C91.9352 117.586 91.9423 117.572 91.9383 117.58C91.9273 117.601 91.9485 117.56 91.9375 117.582C91.9331 117.59 91.941 117.575 91.9367 117.583C91.9362 117.584 91.9363 117.584 91.9358 117.585C91.9327 117.591 91.9385 117.58 91.9354 117.586C91.9256 117.605 91.9448 117.567 91.935 117.587C91.9298 117.597 91.9386 117.58 91.9333 117.59C91.919 117.618 91.946 117.565 91.9317 117.593C91.927 117.602 91.9358 117.585 91.9312 117.594C91.9312 117.594 91.9311 117.594 91.931 117.594C91.931 117.594 91.9309 117.595 91.9308 117.595C91.9308 117.595 91.9307 117.595 91.9306 117.595C91.9305 117.595 91.9305 117.595 91.9304 117.596C91.9289 117.598 91.9314 117.593 91.93 117.596C91.9281 117.6 91.931 117.594 91.9292 117.598C91.9229 117.61 91.935 117.587 91.9287 117.599C91.9287 117.599 91.9286 117.599 91.9285 117.599C91.9285 117.599 91.9284 117.599 91.9283 117.6C91.9173 117.621 91.9377 117.581 91.9267 117.603C91.9231 117.61 91.9298 117.597 91.9262 117.604C91.9262 117.604 91.9261 117.604 91.926 117.604C91.926 117.604 91.9259 117.604 91.9258 117.604C91.9257 117.605 91.9257 117.605 91.9256 117.605C91.9255 117.605 91.9255 117.605 91.9254 117.605C91.9253 117.605 91.9253 117.606 91.9252 117.606C91.9251 117.606 91.9251 117.606 91.925 117.606C91.9136 117.628 91.9359 117.585 91.9246 117.607C91.9237 117.609 91.925 117.606 91.9242 117.608C91.9241 117.608 91.924 117.608 91.9239 117.608C91.9239 117.608 91.9238 117.608 91.9237 117.609C91.9221 117.612 91.925 117.606 91.9233 117.609C91.9121 117.631 91.9341 117.588 91.9229 117.61C91.9218 117.612 91.9236 117.609 91.9225 117.611C91.9224 117.611 91.9223 117.611 91.9223 117.611C91.9222 117.611 91.9221 117.612 91.9221 117.612C91.922 117.612 91.9219 117.612 91.9219 117.612C91.9218 117.612 91.9217 117.612 91.9216 117.613C91.919 117.618 91.9235 117.609 91.9208 117.614C91.9207 117.614 91.9207 117.614 91.9206 117.615C91.9205 117.615 91.9205 117.615 91.9204 117.615C91.9183 117.619 91.9221 117.612 91.92 117.616C91.9199 117.616 91.9198 117.616 91.9198 117.616C91.9197 117.616 91.9196 117.616 91.9196 117.617C91.9195 117.617 91.9194 117.617 91.9194 117.617C91.9193 117.617 91.9192 117.617 91.9191 117.617C91.9133 117.629 91.9246 117.607 91.9187 117.618C91.9187 117.618 91.9186 117.619 91.9185 117.619C91.9185 117.619 91.9184 117.619 91.9183 117.619C91.9109 117.633 91.924 117.608 91.9166 117.622C91.9166 117.622 91.9165 117.623 91.9164 117.623C91.9164 117.623 91.9163 117.623 91.9162 117.623C91.9162 117.623 91.9161 117.623 91.916 117.624C91.9159 117.624 91.9159 117.624 91.9158 117.624C91.9157 117.624 91.9157 117.624 91.9156 117.624C91.9155 117.624 91.9155 117.625 91.9154 117.625C91.9115 117.632 91.9189 117.618 91.915 117.626C91.9101 117.635 91.9182 117.619 91.9133 117.629C91.9107 117.634 91.9142 117.627 91.9116 117.632C91.9084 117.638 91.9016 117.652 91.8983 117.658C91.8877 117.679 91.9056 117.644 91.895 117.665C91.8891 117.676 91.8992 117.656 91.8933 117.668C91.8932 117.668 91.8932 117.668 91.8931 117.668C91.893 117.668 91.8929 117.668 91.8929 117.669C91.8928 117.669 91.8927 117.669 91.8927 117.669C91.8926 117.669 91.8925 117.669 91.8925 117.669C91.8842 117.685 91.8999 117.655 91.8916 117.671C91.874 117.705 91.9059 117.643 91.8883 117.678C91.87 117.713 91.9049 117.645 91.8866 117.681C91.8845 117.685 91.8883 117.677 91.8862 117.682C91.8861 117.682 91.8861 117.682 91.886 117.682C91.8859 117.682 91.8859 117.682 91.8858 117.682C91.8849 117.684 91.8862 117.682 91.8854 117.683C91.8836 117.687 91.8867 117.681 91.8849 117.684C91.882 117.69 91.8863 117.681 91.8833 117.687C91.8773 117.699 91.8876 117.679 91.8816 117.691C91.8673 117.719 91.8926 117.669 91.8783 117.697C91.8782 117.697 91.8781 117.697 91.8781 117.697C91.878 117.698 91.8779 117.698 91.8779 117.698C91.8778 117.698 91.8777 117.698 91.8777 117.698C91.8776 117.698 91.8775 117.699 91.8774 117.699C91.8628 117.727 91.8913 117.672 91.8766 117.7C91.865 117.723 91.8874 117.679 91.8758 117.702C91.8642 117.725 91.8865 117.681 91.8749 117.704C91.8643 117.724 91.8822 117.689 91.8716 117.71L92.7612 118.167C92.7613 118.167 92.7613 118.167 92.7614 118.166C92.7615 118.166 92.7616 118.166 92.7616 118.166C92.7617 118.166 92.7618 118.166 92.7618 118.166C92.7619 118.165 92.762 118.165 92.762 118.165C92.7642 118.161 92.7603 118.169 92.7625 118.164C92.7625 118.164 92.7626 118.164 92.7627 118.164C92.7627 118.164 92.7628 118.164 92.7629 118.164C92.7669 118.156 92.7605 118.168 92.7645 118.16C92.7721 118.146 92.7603 118.168 92.7679 118.154C92.768 118.154 92.768 118.154 92.7681 118.153C92.7682 118.153 92.7682 118.153 92.7683 118.153C92.7684 118.153 92.7684 118.153 92.7685 118.153C92.7686 118.152 92.7686 118.152 92.7687 118.152C92.7717 118.146 92.7666 118.156 92.7695 118.151C92.7696 118.15 92.7697 118.15 92.7698 118.15C92.7698 118.15 92.7699 118.15 92.77 118.15C92.7719 118.146 92.7684 118.153 92.7704 118.149C92.7848 118.121 92.7568 118.175 92.7712 118.147C92.7805 118.129 92.7628 118.164 92.7721 118.146C92.7746 118.141 92.7699 118.15 92.7725 118.145C92.7725 118.145 92.7726 118.145 92.7727 118.144C92.7727 118.144 92.7728 118.144 92.7729 118.144C92.7828 118.125 92.7646 118.16 92.7746 118.141C92.792 118.107 92.7637 118.162 92.7812 118.128C92.7813 118.128 92.7814 118.128 92.7814 118.127C92.7815 118.127 92.7816 118.127 92.7816 118.127C92.7896 118.112 92.7741 118.142 92.7821 118.126C92.7826 118.125 92.7823 118.126 92.7829 118.125C92.7841 118.122 92.7833 118.124 92.7846 118.121C92.7861 118.118 92.7863 118.118 92.7879 118.115C92.7955 118.1 92.787 118.117 92.7946 118.102C92.8071 118.077 92.7887 118.113 92.8012 118.089C92.8013 118.089 92.8014 118.089 92.8015 118.088C92.8015 118.088 92.8016 118.088 92.8017 118.088C92.8097 118.072 92.7941 118.103 92.8021 118.087C92.8069 118.078 92.7976 118.096 92.8025 118.086C92.8026 118.086 92.8026 118.086 92.8027 118.086C92.8028 118.086 92.8028 118.086 92.8029 118.086C92.803 118.085 92.8031 118.085 92.8031 118.085C92.8032 118.085 92.8033 118.085 92.8033 118.085C92.8061 118.079 92.801 118.089 92.8037 118.084C92.8044 118.083 92.8039 118.084 92.8046 118.082C92.8135 118.065 92.7973 118.096 92.8062 118.079C92.8206 118.051 92.7936 118.104 92.8079 118.076C92.8133 118.065 92.803 118.085 92.8083 118.075C92.8084 118.075 92.8085 118.075 92.8085 118.075C92.8086 118.074 92.8087 118.074 92.8088 118.074C92.8088 118.074 92.8089 118.074 92.809 118.074C92.809 118.074 92.8091 118.074 92.8092 118.073C92.8101 118.072 92.8087 118.074 92.8096 118.073C92.8115 118.069 92.8085 118.075 92.8104 118.071C92.8183 118.055 92.8029 118.086 92.8108 118.07C92.8117 118.068 92.8104 118.071 92.8113 118.069C92.8275 118.038 92.7967 118.098 92.8129 118.066C92.821 118.05 92.8053 118.081 92.8133 118.065C92.8134 118.065 92.8135 118.065 92.8135 118.065C92.8136 118.065 92.8137 118.065 92.8138 118.064C92.8138 118.064 92.8139 118.064 92.814 118.064C92.814 118.064 92.8141 118.064 92.8142 118.064C92.8142 118.063 92.8143 118.063 92.8144 118.063C92.8144 118.063 92.8145 118.063 92.8146 118.063C92.826 118.041 92.8036 118.084 92.815 118.062C92.8176 118.057 92.8129 118.066 92.8154 118.061C92.8155 118.061 92.8156 118.061 92.8156 118.061C92.8157 118.061 92.8158 118.061 92.8158 118.06C92.8159 118.06 92.816 118.06 92.816 118.06C92.8161 118.06 92.8162 118.06 92.8163 118.06C92.8287 118.035 92.8046 118.082 92.8171 118.058C92.8172 118.058 92.8172 118.058 92.8173 118.058C92.8174 118.057 92.8174 118.057 92.8175 118.057C92.8176 118.057 92.8178 118.056 92.8179 118.056C92.8347 118.024 92.8016 118.088 92.8183 118.055C92.8184 118.055 92.8185 118.055 92.8186 118.055C92.8186 118.055 92.8187 118.055 92.8188 118.055C92.8188 118.055 92.8189 118.054 92.819 118.054C92.819 118.054 92.8191 118.054 92.8192 118.054C92.8192 118.054 92.8193 118.054 92.8194 118.053C92.8195 118.053 92.8195 118.053 92.8196 118.053C92.8203 118.052 92.8206 118.051 92.8213 118.05C92.8361 118.021 92.8098 118.072 92.8246 118.043C92.8315 118.03 92.821 118.05 92.8279 118.037C92.8476 117.999 92.8216 118.049 92.8413 118.011C92.8413 118.011 92.8414 118.011 92.8415 118.01C92.8416 118.01 92.8416 118.01 92.8417 118.01C92.8457 118.002 92.8381 118.017 92.8421 118.009C92.8422 118.009 92.8423 118.009 92.8423 118.009C92.8424 118.009 92.8425 118.009 92.8425 118.008C92.8495 117.995 92.836 118.021 92.8429 118.008C92.8606 117.973 92.8269 118.039 92.8446 118.004C92.8572 117.98 92.8337 118.026 92.8463 118.001C92.8527 117.989 92.8416 118.01 92.848 117.998C92.852 117.99 92.8506 117.993 92.8546 117.985C92.8645 117.966 92.8464 118.001 92.8563 117.982C92.8671 117.96 92.8471 117.999 92.858 117.978C92.8628 117.969 92.8564 117.981 92.8613 117.972C92.8728 117.949 92.8514 117.991 92.863 117.969C92.8748 117.946 92.852 117.99 92.8638 117.967C92.8639 117.967 92.8639 117.967 92.864 117.967C92.8641 117.966 92.8641 117.966 92.8642 117.966C92.8696 117.956 92.8593 117.976 92.8646 117.965C92.8808 117.934 92.8501 117.994 92.8663 117.962C92.8664 117.962 92.8664 117.962 92.8665 117.962C92.8666 117.962 92.8666 117.961 92.8667 117.961C92.8668 117.961 92.8669 117.961 92.8669 117.961C92.867 117.961 92.8671 117.961 92.8671 117.96C92.8714 117.952 92.8633 117.968 92.8676 117.96C92.8676 117.96 92.8677 117.959 92.8678 117.959C92.8678 117.959 92.8679 117.959 92.868 117.959L91.9784 117.502ZM92.5353 118.388C92.5445 118.383 92.5514 118.38 92.5579 118.377C92.5642 118.374 92.5689 118.372 92.5727 118.37C92.5802 118.367 92.5826 118.366 92.582 118.366C92.581 118.367 92.5779 118.368 92.5736 118.368C92.5692 118.369 92.5663 118.369 92.5655 118.369V117.369C92.3345 117.369 92.1731 117.452 92.0975 117.489L92.5353 118.388Z" fill="#1E1E1E" mask="url(#path-9-inside-2_0_1)"/>
</g>
<g id="Vector_5">
<mask id="path-11-inside-3_0_1" fill="white">
<path d="M45.5172 72.0503L45.3749 71.9116C45.3393 71.9809 45.3393 72.0849 45.3037 72.1542C45.3749 72.1196 45.4461 72.0849 45.5172 72.0503Z"/>
</mask>
<path d="M45.5172 72.0503L45.3749 71.9116C45.3393 71.9809 45.3393 72.0849 45.3037 72.1542C45.3749 72.1196 45.4461 72.0849 45.5172 72.0503Z" fill="#717171"/>
<path d="M45.5172 72.0503L45.7361 72.4998L46.3757 72.1884L45.8661 71.692L45.5172 72.0503ZM45.3749 71.9116L45.7237 71.5534L45.2391 71.0814L44.9301 71.6833L45.3749 71.9116ZM45.3037 72.1542L44.8589 71.9259L44.1736 73.2606L45.5226 72.6038L45.3037 72.1542ZM45.8661 71.692L45.7237 71.5534L45.026 72.2698L45.1684 72.4085L45.8661 71.692ZM44.9301 71.6833C44.8991 71.7436 44.8815 71.8 44.8711 71.8386C44.8608 71.8766 44.8534 71.9136 44.8495 71.9323C44.8445 71.9569 44.843 71.9632 44.8422 71.9664C44.8415 71.969 44.8457 71.9516 44.8589 71.9259L45.7485 72.3826C45.7795 72.3222 45.7971 72.2659 45.8075 72.2273C45.8178 72.1893 45.8252 72.1523 45.8291 72.1335C45.8341 72.1089 45.8356 72.1026 45.8364 72.0995C45.8371 72.0969 45.8329 72.1143 45.8197 72.14L44.9301 71.6833ZM45.5226 72.6038C45.5582 72.5864 45.5938 72.5691 45.6294 72.5518C45.665 72.5344 45.7006 72.5171 45.7361 72.4998L45.2983 71.6007C45.2628 71.618 45.2272 71.6354 45.1916 71.6527C45.156 71.67 45.1204 71.6874 45.0848 71.7047L45.5226 72.6038Z" fill="#1E1E1E" mask="url(#path-11-inside-3_0_1)"/>
</g>
</g>
<path id="Vector_6" d="M145.486 15.6606V3.18668L165.981 23.147L145.486 43.141V30.6678V30.4178H145.236H77.4053V15.9106H145.236H145.486V15.6606Z" fill="#BB0B32" stroke="#1E1E1E" stroke-width="0.5"/>
<path id="Vector_7" d="M87.475 80.9923V93.4662L66.9793 73.5058L87.475 53.5118V65.985V66.235H87.725H155.52V80.7423H87.725H87.475V80.9923Z" fill="#BB0B32" stroke="#1E1E1E" stroke-width="0.5"/>
</g>
<g id="Group_5">
<path id="Vector_8" d="M56.5443 141.922L56.5443 141.922L56.5453 141.92C57.2167 140.893 58.7718 140.542 59.8684 141.233C60.4207 141.581 60.8041 142.114 60.9314 142.702C61.0594 143.327 60.9321 143.951 60.5773 144.486C60.1248 145.146 59.3833 145.554 58.5425 145.554C58.1343 145.554 57.7234 145.451 57.3334 145.243V145.216L57.2167 145.142C56.6664 144.795 56.317 144.297 56.1892 143.708C56.0611 143.082 56.1888 142.457 56.5443 141.922Z" fill="black" stroke="black" stroke-width="0.5"/>
<path id="Vector_9" d="M110.787 113.261L110.788 113.262L135.415 137.211C137.852 139.584 139.228 142.747 139.228 146.151C139.228 150.31 137.11 154.126 133.721 156.396L133.697 156.412L133.685 156.438C133.546 156.744 133.374 157.043 133.102 157.309C132.588 157.809 131.937 158.043 131.285 158.043C131.054 158.043 130.855 157.979 130.64 157.909L130.605 157.897L130.57 157.912C124.142 160.61 116.896 162.028 109.007 162.028C94.5429 161.994 78.7938 157.529 63.4316 149.009C62.8472 148.674 62.4038 148.141 62.2337 147.511C62.0621 146.876 62.1317 146.176 62.4719 145.613L62.472 145.613L62.4737 145.61C63.1214 144.448 64.7675 144.011 65.9677 144.678L65.9679 144.679C80.3214 152.622 95.6053 157.03 108.971 157.03C115.245 157.03 120.951 156.057 126.122 154.251L126.275 154.198L126.159 154.085L93.24 122.026L93.1538 121.942L93.0871 122.042C90.7325 125.567 86.7345 127.832 82.276 127.855L82.2303 127.744L82.0378 127.782V127.855C78.6491 127.829 75.4751 126.525 73.0975 124.175L73.097 124.175L38.8966 90.9024C36.4601 88.5295 35.1189 85.3666 35.1189 82.0321C35.1189 78.6628 36.4602 75.4999 38.8966 73.1271C39.5679 72.4734 40.3095 71.8887 41.086 71.4075L41.1947 71.3401L41.1031 71.2509L8.21949 39.2262L8.10912 39.1187L8.05588 39.2633C6.20086 44.3008 5.23826 49.8927 5.23825 55.9339C5.2026 78.3236 17.747 103.857 38.7927 124.318C43.6362 129.035 48.836 133.405 54.2498 137.256L54.25 137.256C55.3794 138.056 55.6523 139.621 54.7974 140.753L54.7967 140.754C54.0115 141.818 52.3295 142.087 51.1982 141.286C45.6152 137.304 40.2098 132.767 35.1598 127.849C13.2153 106.477 0.135564 79.5717 0.1 55.934C0.10001 47.7681 1.66314 40.3665 4.7518 33.8313C4.7724 33.7909 4.78305 33.7598 4.79202 33.7336L4.79227 33.7328C4.80093 33.7075 4.80791 33.6873 4.82221 33.6595L4.83325 33.638V33.6138V33.6018C6.88465 29.3173 11.3974 26.5395 16.2994 26.5395H16.3706C19.833 26.5395 23.1171 27.8468 25.5533 30.2537L25.5538 30.2542L50.1097 54.1688L50.1103 54.1693C52.5821 56.5422 53.9228 59.7045 53.8875 63.0033L53.8875 63.0051C53.9228 68.2979 50.4996 73.0781 45.3785 74.9016C44.2964 75.2531 43.323 75.8503 42.4943 76.6572C41.0504 78.0285 40.2216 80.0304 40.2216 82.0321C40.2216 84.0697 41.0158 85.9326 42.53 87.3723C42.5301 87.3725 42.5302 87.3726 42.5303 87.3727L76.6942 120.644C78.1719 122.083 80.0475 122.856 82.1378 122.856C85.4875 122.856 88.3732 120.891 89.4916 117.869L89.4919 117.869C90.1273 116.115 91.151 114.534 92.4926 113.227C94.8934 110.889 98.2491 109.547 101.676 109.547C105.102 109.547 108.351 110.854 110.787 113.261ZM38.8268 90.974L73.0272 124.246H38.8624C17.8297 103.798 5.30266 78.2889 5.33825 55.934C5.33825 49.9445 6.28608 44.3995 8.112 39.4007L8.07995 39.3695L8.14972 39.2978L8.24356 39.3324C8.23843 39.3463 8.2333 39.3603 8.22818 39.3742L40.9595 71.2506C40.9666 71.2463 40.9736 71.2419 40.9806 71.2375L41.0333 71.3225L40.9636 71.3942L40.9461 71.3771C40.1949 71.8517 39.4779 72.4214 38.8268 73.0555C36.3713 75.4469 35.0189 78.6355 35.0189 82.0321C35.0189 85.394 36.3713 88.5826 38.8268 90.974ZM45.8392 68.8294L45.9035 68.8921L45.9727 68.8348C47.6668 67.4307 48.7492 65.3236 48.7492 63.0044C48.7492 61.0012 47.9549 59.1386 46.4769 57.6993L21.921 33.7848C20.4431 32.3455 18.4607 31.5383 16.3706 31.5383C13.9569 31.5383 11.8645 32.5562 10.4574 34.2429L10.398 34.314L10.4644 34.3786L45.8392 68.8294ZM131.073 151.837L131.136 151.898L131.205 151.844C132.937 150.474 133.983 148.401 134.019 146.118L134.019 146.114C133.983 144.044 133.19 142.147 131.711 140.707L107.156 116.793C107.156 116.793 107.155 116.793 107.155 116.793C105.677 115.318 103.766 114.546 101.676 114.546C99.5527 114.546 97.5717 115.351 96.1293 116.754C95.9901 116.864 95.8877 116.997 95.7906 117.124C95.7572 117.168 95.7243 117.21 95.6909 117.251L95.6326 117.322L95.6984 117.386L131.073 151.837Z" fill="black" stroke="black" stroke-width="0.2"/>
<path id="Vector_10" d="M142.567 13.1612H142.667V13.0612V2.59429C142.667 1.59687 143.281 0.696268 144.242 0.295121C145.201 -0.105108 146.333 0.128689 147.052 0.829016L168.156 21.3816C169.148 22.3475 169.148 23.9463 168.156 24.9122L168.156 24.9122L147.052 45.4995C147.052 45.4995 147.052 45.4995 147.052 45.4995C146.573 45.9665 145.922 46.2336 145.236 46.2336C144.893 46.2336 144.55 46.1667 144.244 46.0339L144.244 46.0338L144.24 46.0322C143.283 45.6662 142.667 44.7337 142.667 43.7342V33.2673V33.1673H142.567H77.1555C75.749 33.1673 74.5863 32.0312 74.5863 30.6679V15.6606C74.5863 14.2973 75.749 13.1612 77.1555 13.1612H142.567ZM147.805 37.4263V37.6633L147.975 37.498L162.637 23.2186L162.711 23.1469L162.637 23.0753L147.975 8.79588L147.805 8.63054V8.86752V15.6606C147.805 17.0239 146.642 18.16 145.236 18.16H79.8246H79.7246V18.26V28.0685V28.1685H79.8246H145.236C146.642 28.1685 147.805 29.3046 147.805 30.6679V37.4263Z" fill="black" stroke="black" stroke-width="0.2"/>
<path id="Vector_11" d="M90.258 63.3857V63.4857H90.358H155.769C157.211 63.4857 158.338 64.5871 158.338 65.9851V80.9923C158.338 82.3556 157.176 83.4917 155.769 83.4917H90.358H90.258V83.5917V94.0587C90.258 95.0557 89.644 95.956 88.6835 96.3574C88.3375 96.4921 88.0298 96.5581 87.6889 96.5581C87.0031 96.5581 86.352 96.2909 85.8725 95.8239L64.7686 75.2713C63.7769 74.3055 63.7769 72.7066 64.7686 71.7408L64.7687 71.7407L85.8708 51.1551C85.8711 51.1548 85.8714 51.1545 85.8717 51.1543C86.6279 50.4519 87.725 50.22 88.6824 50.6196L88.6824 50.6196L88.6852 50.6207C89.6419 50.9867 90.258 51.9193 90.258 52.9188V63.3857ZM153.1 78.4929H153.2V78.3929V68.5845V68.4845H153.1H87.6889C86.2825 68.4845 85.1198 67.3484 85.1198 65.9851V59.2266V58.9897L84.95 59.155L70.2876 73.4344L70.2141 73.506L70.2876 73.5777L84.95 87.8571L85.1198 88.0224V87.7854V80.9923C85.1198 79.629 86.2825 78.4929 87.6889 78.4929H153.1Z" fill="black" stroke="black" stroke-width="0.2"/>
</g>
</g>
</g>
<path d="M492 236.5H-950V237.5H492V236.5Z" fill="black" mask="url(#path-4-inside-1_0_1)"/>
</g>
</g>
<path d="M-2618 -2346H2606V-2348H-2618V-2346ZM2607 -2345V6349H2609V-2345H2607ZM2606 6350H-2618V6352H2606V6350ZM-2619 6349V-2345H-2621V6349H-2619ZM-2618 6350C-2618.55 6350 -2619 6349.55 -2619 6349H-2621C-2621 6350.66 -2619.66 6352 -2618 6352V6350ZM2607 6349C2607 6349.55 2606.55 6350 2606 6350V6352C2607.66 6352 2609 6350.66 2609 6349H2607ZM2606 -2346C2606.55 -2346 2607 -2345.55 2607 -2345H2609C2609 -2346.66 2607.66 -2348 2606 -2348V-2346ZM-2618 -2348C-2619.66 -2348 -2621 -2346.66 -2621 -2345H-2619C-2619 -2345.55 -2618.55 -2346 -2618 -2346V-2348Z" fill="white" fill-opacity="0.1"/>
</g>
<defs>
<filter id="filter0_d_0_1" x="-954" y="-557" width="1450" height="811" filterUnits="userSpaceOnUse" color-interpolation-filters="sRGB">
<feFlood flood-opacity="0" result="BackgroundImageFix"/>
<feColorMatrix in="SourceAlpha" type="matrix" values="0 0 0 0 0 0 0 0 0 0 0 0 0 0 0 0 0 0 127 0" result="hardAlpha"/>
<feOffset dy="4"/>
<feGaussianBlur stdDeviation="2"/>
<feComposite in2="hardAlpha" operator="out"/>
<feColorMatrix type="matrix" values="0 0 0 0 0 0 0 0 0 0 0 0 0 0 0 0 0 0 0.25 0"/>
<feBlend mode="normal" in2="BackgroundImageFix" result="effect1_dropShadow_0_1"/>
<feBlend mode="normal" in="SourceGraphic" in2="effect1_dropShadow_0_1" result="shape"/>
</filter>
</defs>
</svg>
