<?xml version="1.0" encoding="utf-8"?>
<!-- Generator: Adobe Illustrator 27.5.0, SVG Export Plug-In . SVG Version: 6.00 Build 0)  -->
<svg version="1.0" id="Слой_1" xmlns="http://www.w3.org/2000/svg" xmlns:xlink="http://www.w3.org/1999/xlink" x="0px" y="0px"
	 viewBox="0 0 594.7 580" style="enable-background:new 0 0 594.7 580;" xml:space="preserve">
<style type="text/css">
	.st0{fill:#010202;}
	.st1{fill:#FFFFFF;}
	.st2{fill:#BB1735;}
	.st3{fill:none;stroke:#FFFFFF;stroke-miterlimit:10;}
	.st4{fill:none;stroke:#BB1735;stroke-miterlimit:10;}
	.st5{fill:#020203;}
	.st6{fill:#FFFFFF;stroke:#010202;stroke-miterlimit:10;}
	.st7{fill:#FFFFFF;stroke:#000000;stroke-miterlimit:10;}
	.st8{fill:none;stroke:#010202;stroke-miterlimit:10;}
</style>
<g>
	<polygon class="st0" points="87.4,119.6 19.7,137.1 48.6,97.9 86.6,93.1 86.6,21.5 152.1,21.5 152.1,77.7 507.7,6.1 529.7,35 
		153.4,107.2 153.4,236.4 136.3,240 86.6,250.6 	"/>
	<path class="st1" d="M506.8,8.6l18.9,24.9l-374.6,71.8v129.3l-15.3,3.2l-46.9,10l0.8-131.1l-64.4,16.6L49.8,100l39.1-4.9V23.7h61
		v56.7L506.8,8.6 M508.7,3.6l-2.8,0.6L154.4,74.9V23.7v-4.5h-4.5h-61h-4.5v4.5v67.4l-35.2,4.4l-1.9,0.2l-1.1,1.6l-24.5,33.3
		l-7.5,10.2l12.2-3.2l58.7-15.1l-0.8,125.3l0,5.6l5.5-1.2l46.9-10L152,239l3.6-0.7v-3.7V109l370.9-71.1l7.1-1.4l-4.4-5.8L510.4,5.9
		L508.7,3.6L508.7,3.6z"/>
</g>
<polygon class="st0" points="135.8,181.2 104.5,202 104.5,158.5 "/>
<polygon class="st0" points="135.8,101.6 104.5,122.4 104.5,78.9 "/>
<polygon class="st0" points="135.8,40.6 135.8,84.1 104.5,61.4 "/>
<polygon class="st0" points="135.8,118.7 135.8,162.2 104.5,139.5 "/>
<polygon class="st0" points="135.8,195 135.8,237.8 135.1,238 104.5,215.8 "/>
<polygon class="st0" points="181.9,81.1 174.1,96.7 164.1,84.1 "/>
<polygon class="st0" points="199.8,92.2 181.9,95.1 189.8,79.5 "/>
<polygon class="st0" points="215.1,76.3 207.2,91.9 197.2,79.2 "/>
<polygon class="st0" points="232.2,84.5 214.4,87.4 222.3,71.8 "/>
<polygon class="st0" points="247.1,68.5 239.2,84.1 229.2,71.4 "/>
<polygon class="st0" points="264.6,79.1 246.8,82 254.7,66.4 "/>
<polygon class="st0" points="280.5,62.3 272.7,77.9 262.7,65.3 "/>
<polygon class="st0" points="297,73.7 279.2,76.6 287.1,61 "/>
<polygon class="st0" points="312.9,56.7 305.1,72.4 295.1,59.7 "/>
<polygon class="st0" points="330.8,66 312.9,68.8 320.8,53.2 "/>
<polygon class="st0" points="345.7,48.9 337.8,64.6 327.8,51.9 "/>
<polygon class="st0" points="362.2,60.3 344.3,63.2 352.2,47.6 "/>
<polygon class="st0" points="378,43 370.2,58.6 360.2,45.9 "/>
<polygon class="st0" points="394.6,54.9 376.8,57.8 384.7,42.2 "/>
<polygon class="st0" points="410.4,37.4 402.6,53 392.5,40.4 "/>
<polygon class="st0" points="428.1,49 410.3,51.9 418.2,36.3 "/>
<polygon class="st0" points="442.8,31.8 435,47.4 424.9,34.8 "/>
<polygon class="st0" points="460.2,41.4 442.3,44.2 450.2,28.6 "/>
<polygon class="st0" points="475.1,24 467.3,39.6 457.3,27 "/>
<polygon class="st0" points="493.3,33.6 475.5,36.4 483.4,20.9 "/>
<polygon class="st0" points="506.8,16.2 499,31.8 488.9,19.2 "/>
<polygon class="st1" points="135.8,40.6 135.8,84.1 104.5,61.4 "/>
<polygon class="st1" points="135.8,118.7 135.8,162.2 104.5,139.5 "/>
<polygon class="st1" points="135.8,195 135.8,238.5 135.8,233.7 104.5,215.8 "/>
<polygon class="st1" points="135.8,101.6 104.5,122.4 104.5,78.9 "/>
<g>
	<polygon class="st0" points="413.8,87.1 413.8,62.8 453.5,53.9 453.5,87.1 	"/>
	<path class="st1" d="M451.3,56.7v28.1H416V64.6L451.3,56.7 M455.8,51.1l-5.5,1.2L415,60.2l-3.5,0.8v3.6v20.2v4.5h4.5h35.3h4.5v-4.5
		V56.7V51.1L455.8,51.1z"/>
</g>
<polygon class="st1" points="135.8,181.2 104.5,202 104.5,158.5 "/>
<g>
	<polygon class="st0" points="455,87.1 455,54.9 494.2,46.1 494.2,87.1 	"/>
	<path class="st1" d="M491.9,48.9v35.9h-34.6V56.7L491.9,48.9 M496.4,43.3l-5.5,1.2l-34.6,7.8l-3.5,0.8v3.6v28.1v4.5h4.5h34.6h4.5
		v-4.5V48.9V43.3L496.4,43.3z"/>
</g>
<g>
	<g>
		<g>
			<polygon class="st2" points="11.4,324.5 91.6,306.7 91.6,459 56.2,467 53.4,339.2 51.1,339.7 51.1,468.2 13.2,476.7 			"/>
			<path class="st1" d="M89.4,309.5v147.7l-31,7l-2.8-127.8l-6.7,1.5v128.5l-33.5,7.5l-1.7-147.6L89.4,309.5 M93.9,303.9l-5.5,1.2
				l-75.7,16.8l-3.6,0.8l0,3.7L10.9,474l0.1,5.6l5.4-1.2l33.5-7.5l3.5-0.8v-3.6v-25l0.5,22.9l0.1,5.5l5.4-1.2l31-7l3.5-0.8v-3.6
				V309.5V303.9L93.9,303.9z"/>
		</g>
	</g>
	<g>
		<polygon class="st3" points="13.7,326.3 15.4,473.9 48.9,466.4 48.9,337.9 55.6,336.4 58.4,464.2 89.4,457.2 89.4,309.5 		"/>
	</g>
</g>
<path class="st4" d="M130.1,428.6c0.7-22.5-1-84.4-1.1-106.7"/>
<path class="st4" d="M140.9,321.9c-0.3,26.9,1.7,85.9,2.1,106.7"/>
<g>
	<path class="st2" d="M101.4,304.5l67.1-14.9l0.4,151.9l-63.6,14.4L101.4,304.5z M133.5,430.2l6.1-1.2l-2-108l-5.2,1L133.5,430.2z"
		/>
	<path class="st1" d="M166.3,292.4l0.4,147.3l-59.2,13.4l-3.8-146.8L166.3,292.4 M131.3,432.9l10.6-2.1l-2.1-112.5l-9.7,1.8
		L131.3,432.9 M170.8,286.8l-5.5,1.2l-62.6,13.9l-3.6,0.8l0.1,3.7l3.8,146.8l0.1,5.5l5.3-1.2l59.2-13.4l3.5-0.8l0-3.6l-0.4-147.3
		L170.8,286.8L170.8,286.8z M134.6,323.8l0.8-0.1l1.9,103.4l-1.6,0.3L134.6,323.8L134.6,323.8z"/>
</g>
<g>
	<path class="st2" d="M181,415.5l9.7-4.8l-3.8-125.2l75.5-16.5v126.8l9.1-1.1V428l-32,16.9v-24.1l-26.7,4.8v17.9L181,465.5V415.5z
		 M221,410.1l8.9-2V299.7l-8.9,2.3V410.1z"/>
	<path class="st1" d="M260.1,271.8v126.5l9.1-1.1v29.4l-27.5,14.5V418l-31.2,5.6v18.6l-27.2,19v-44.3l9.7-4.8l-3.8-124.8
		L260.1,271.8 M218.7,412.9l13.4-3V296.8l-13.4,3.4V412.9 M264.6,266.2l-5.5,1.2l-70.9,15.5l-3.7,0.8l0.1,3.7l3.7,121.9l-7.1,3.5
		l-2.5,1.2v2.8v44.3v8.6l7.1-4.9l27.2-19l1.9-1.3v-2.3v-14.8l22.2-4v17.7v7.5l6.6-3.5l27.5-14.5l2.4-1.3v-2.7v-29.4v-5.1l-5,0.6
		l-4.1,0.5V271.8V266.2L264.6,266.2z M223.2,303.7l4.4-1.1v103.7l-4.4,1V303.7L223.2,303.7z"/>
</g>
<polygon class="st4" points="232.1,296.7 232.1,409.9 218.7,412.9 218.7,300.2 "/>
<polygon class="st3" points="232.1,296.7 232.1,409.9 218.7,412.9 218.7,300.2 "/>
<polygon class="st1" points="155.6,98.1 162.7,83.7 172.5,94.9 "/>
<polygon class="st1" points="188.1,78.1 181,92.5 171.3,81.3 "/>
<polygon class="st1" points="190.2,91.5 197.3,77 207,88.2 "/>
<polygon class="st1" points="222.7,71.5 215.6,85.9 205.8,74.7 "/>
<polygon class="st1" points="224.4,85.5 231.5,71 241.2,82.2 "/>
<polygon class="st1" points="256.9,65.5 249.8,79.9 240,68.7 "/>
<polygon class="st1" points="258.6,78.8 265.7,64.4 275.4,75.6 "/>
<polygon class="st1" points="291.1,58.8 284,73.3 274.2,62.1 "/>
<polygon class="st1" points="293.2,71.7 300.3,57.2 310,68.5 "/>
<polygon class="st1" points="325.7,51.7 318.6,66.1 308.8,54.9 "/>
<polygon class="st1" points="326.7,65.8 333.8,51.4 343.5,62.6 "/>
<polygon class="st1" points="359.2,45.9 352.1,60.3 342.3,49.1 "/>
<polygon class="st1" points="360.2,58.9 367.3,44.5 377,55.7 "/>
<polygon class="st1" points="392.7,38.9 385.6,53.4 375.8,42.2 "/>
<polygon class="st1" points="393.9,52.2 401,37.8 410.8,49 "/>
<polygon class="st1" points="426.4,32.2 419.3,46.7 409.6,35.5 "/>
<polygon class="st1" points="427.4,46.3 434.5,31.8 444.3,43 "/>
<polygon class="st1" points="459.9,26.3 452.8,40.7 443,29.5 "/>
<polygon class="st1" points="460.8,40.1 467.9,25.6 477.7,36.9 "/>
<polygon class="st1" points="494.2,33.5 501.3,19.1 511,30.3 "/>
<polygon class="st1" points="493.3,20.1 486.2,34.5 476.5,23.3 "/>
<g>
	<path class="st2" d="M288.9,286.9l-17.1,3.8l-0.1-24l51-11.3l0.4,56.8l35.7-7.9l0.4,94.3l-69.8,15.7L288.9,286.9z M320.6,392.1
		l6.9-1.5l-1.5-63l-6.1,0.9L320.6,392.1z"/>
	<path class="st1" d="M320.4,258.2l0.4,56.8l35.7-7.9l0.4,89.7l-65.3,14.7l-0.5-127.4l-17.1,3.8l-0.1-19.4L320.4,258.2 M318.4,394.9
		l11.4-2.5l-1.6-67.4l-10.6,1.6L318.4,394.9 M324.9,252.6l-5.4,1.2l-46.5,10.3l-3.5,0.8l0,3.6l0.1,19.4l0,5.6l5.4-1.2l11.6-2.6
		l0.5,121.8l0,5.6l5.5-1.2l65.3-14.7l3.5-0.8l0-3.6l-0.4-89.7l0-5.6l-5.4,1.2l-30.3,6.7l-0.4-51.2L324.9,252.6L324.9,252.6z
		 M322.1,330.5l1.7-0.3l1.4,58.6l-2.4,0.5L322.1,330.5L322.1,330.5z"/>
</g>
<g>
	<polygon class="st2" points="369.5,244.9 435.8,230.2 436.2,251.9 404.3,259 404.3,300.4 437.8,293.2 437.8,312.1 405.2,319 
		405.4,366.9 440,359.2 440,380.3 369.5,396.2 	"/>
	<path class="st1" d="M433.6,233l0.3,17.1l-31.8,7.1v46l33.5-7.2v14.3l-32.7,6.9l0.3,52.5l34.5-7.7v16.5l-65.9,14.9V246.7L433.6,233
		 M438,227.4l-5.4,1.2l-61.8,13.7l-3.5,0.8v3.6v146.7v5.6l5.5-1.2l65.9-14.9l3.5-0.8v-3.6V362v-5.6l-5.5,1.2l-29.1,6.5l-0.2-43.2
		l29.1-6.1l3.6-0.8v-3.6V296v-5.6l-5.4,1.2l-28.1,6v-36.8l28.3-6.3l3.6-0.8l-0.1-3.7l-0.3-17.1L438,227.4L438,227.4z"/>
</g>
<g>
	<g>
		<g>
			<path class="st5" d="M14,269.2l13-2.4v14.6l0.4-0.1l4.5-8.6c3.1-6.1,6.4-8.8,11.6-9.8c0.8-0.2,1.7-0.2,2.4-0.2
				c0.6,0,1.2,0.1,1.6,0.2l2,0.5l-2.2,12.1l-2.2-0.4c-0.1,0-0.1,0-0.2,0c-0.2,0-0.3,0-0.4,0l-0.2,0.1l-0.1,0
				c-0.6,0.1-1.1,0.2-2.7,3.1l-3.4,6.4l13.5,19.2l-13.8,2.6l-10-13.9l-1,0.2v15.8l-13,2.4L14,269.2z"/>
			<path class="st1" d="M45.8,265c0.4,0,0.8,0,1.1,0.1l-1.4,7.8c-0.2,0-0.4,0-0.5,0c-0.4,0-0.8,0.1-1.1,0.1
				c-1.7,0.3-2.7,1.3-4.3,4.2l-4.1,7.7l12.3,17.4l-9,1.7l-10-13.9l-4.2,0.8v15.8l-8.5,1.6l0.1-37.2l8.5-1.6v14.6l4.1-0.8l5-9.5
				c2.9-5.6,5.7-7.8,10-8.6C44.4,265.1,45.2,265,45.8,265 M45.8,260.5c-0.9,0-1.9,0.1-2.9,0.3c-5.9,1.1-9.7,4.3-13.1,10.9l-0.6,1.2
				v-3.4v-5.4l-5.3,1l-8.5,1.6l-3.7,0.7l0,3.7l-0.1,37.2l0,5.4l5.3-1l8.5-1.6l3.7-0.7v-3.7v-8.5l6,8.4l1.7,2.3l2.8-0.5l9-1.7
				l6.9-1.3l-4-5.7l-10.7-15.2l2.8-5.2c0.7-1.2,1.1-1.7,1.2-1.9l0.2,0l0,0l4.2,0.7l0.8-4.4l1.4-7.8l0.7-4.1l-4.1-1
				C47.3,260.6,46.6,260.5,45.8,260.5L45.8,260.5z"/>
		</g>
		<g>
			<path class="st5" d="M74.1,300.1c-4.4,0-8.2-1.5-10.9-4.2c-3.3-3.3-5-8.4-5-14.6c0-12.7,7.5-22.3,19-24.5
				c1.4-0.3,2.8-0.4,4.1-0.4c4.3,0,8.1,1.4,10.8,4.2c3.2,3.3,4.9,8.2,4.9,14.3c0,12.8-7.5,22.6-19,24.9
				C76.7,299.9,75.4,300.1,74.1,300.1z M79.2,268.2c-0.3,0-0.7,0-1.1,0.1c-4.1,0.8-6.5,5-6.6,11.2c0,2.5,0.5,8.5,4.7,8.5l0,0
				c0.3,0,0.7,0,1.1-0.1c4.1-0.7,6.7-5.2,6.7-11.5C83.9,273.3,83.2,268.2,79.2,268.2z"/>
			<path class="st1" d="M81.4,258.5c8.2,0,13.5,5.7,13.4,16.3c0,12.1-7.1,20.7-17.2,22.7c-1.2,0.2-2.4,0.3-3.5,0.3
				c-8.3,0-13.7-5.9-13.6-16.6c0-12.1,7-20.4,17.2-22.3C79,258.7,80.2,258.5,81.4,258.5 M76.1,290.2c0.5,0,1,0,1.5-0.1
				c5.2-0.9,8.5-6.3,8.5-13.7c0-6.8-2.6-10.4-6.9-10.4c-0.5,0-1,0-1.5,0.1c-5.2,1-8.4,6-8.5,13.4C69.2,286.3,71.8,290.2,76.1,290.2
				 M81.4,254L81.4,254c-1.5,0-3,0.1-4.5,0.4C64.2,256.8,56,267.3,56,281.2c-0.1,6.8,1.9,12.4,5.6,16.2c3.2,3.2,7.5,4.9,12.5,4.9
				c1.4,0,2.8-0.1,4.3-0.4l0,0l0,0c12.7-2.5,20.8-13.1,20.8-27.1c0.1-6.7-1.8-12.2-5.5-15.9C90.6,255.7,86.4,254,81.4,254L81.4,254z
				 M78.5,270.5c0.2,0,0.5-0.1,0.7-0.1c2.2,0,2.4,4.1,2.4,5.9c0,5-1.9,8.8-4.8,9.3l0,0l0,0c-0.2,0-0.5,0.1-0.6,0.1
				c-1.9,0-2.4-3.9-2.4-6.2C73.7,277.6,74.2,271.4,78.5,270.5L78.5,270.5z"/>
		</g>
		<g>
			<path class="st5" d="M109.9,251.2l12.9-2.5c0,0,6.8,17.2,6.9,17.2c0.1-0.3,0.2-0.6,0.3-0.9l6.4-18.8l13.3-2.6l-0.1,41.7
				l-12.3,2.4v-12.9l-3.7,10.3l-7.8,1.5l-3.9-9.6l0,13.5l-12.2,2.2L109.9,251.2z"/>
			<path class="st1" d="M147.4,246.4l-0.1,37.1l-7.8,1.5v-13.6c0-3.6,0.7-9.2,1.1-12.8h-0.2l-3.1,9.4l-5.4,15.2l-4.7,0.9l-5.3-13.2
				l-3-8.2h-0.2c0.4,3.5,1.1,8.8,1,12.4v13.6l-7.7,1.4l0.1-37l9.3-1.8l6.1,15.3c0.8,2,1.4,4.3,2.2,6.5h0.2c0.8-2.4,1.4-4.9,2.2-7.3
				l6-17.6L147.4,246.4 M151.9,240.9l-5.4,1l-9.3,1.8l-2.6,0.5l-0.8,2.5l-4.3,12.7l-3.9-9.8l-1.4-3.5l-3.7,0.7l-9.3,1.8l-3.6,0.7
				l0,3.7l-0.1,37l0,5.4l5.3-1l7.7-1.4l3.7-0.7v-3.8l0.2,0.5l3.6-0.7l4.7-0.9l2.3-0.4v3.3l5.3-1l7.8-1.5l3.6-0.7l0-3.7l0.1-37.1
				L151.9,240.9L151.9,240.9z"/>
		</g>
		<g>
			<polygon class="st5" points="164.1,241 198.3,234.6 198.1,276.3 185.1,278.7 185.2,248.6 177.3,250.2 177.2,280.3 164.3,282.7 
							"/>
			<path class="st1" d="M196,237.3l-0.1,37.1l-8.5,1.6l0.1-30.1l-12.4,2.4l-0.1,30.1l-8.5,1.6l-0.1-37.1L196,237.3 M200.5,231.9
				l-5.4,1l-29.6,5.6l-3.7,0.7l0,3.7L162,280l0,5.4l5.3-1l8.5-1.6l3.7-0.7l0-3.7l0.1-26.4l3.4-0.7l-0.1,24.6l0,5.4l5.4-1l8.5-1.6
				l3.7-0.7l0-3.7l0.1-37.1L200.5,231.9L200.5,231.9z"/>
		</g>
		<g>
			<path class="st5" d="M220.2,230.4l13.5-2.5l13.1,39.1l-13.6,2.6l-2.3-8.4l-8.1,1.5l-2.4,9.3l-13.8,2.7L220.2,230.4z M226.9,247
				c-0.3,1.4-0.7,2.8-1.1,4.1l0,0.2l2.2-0.4l-0.3-0.9C227.5,249,227.2,248,226.9,247z"/>
			<path class="st1" d="M232.2,230.5l11.7,34.8l-9,1.7l-2.3-8.4l-11.5,2.2l-2.4,9.3l-8.7,1.7l12-39.4L232.2,230.5 M222.8,254l8-1.4
				l-0.9-3.3c-1-3.5-2-7.7-3-11.4h-0.2c-0.9,4-1.9,8.6-3,12.5L222.8,254 M235.2,225.4l-3.8,0.7l-10.2,1.9l-2.7,0.5l-0.8,2.6
				l-12,39.4l-2.2,7.2l7.3-1.4l8.7-1.7l2.8-0.5l0.7-2.7l1.7-6.5l4.6-0.9l1.2,4.4l1.1,4l4.1-0.8l9-1.7l5.1-1l-1.6-4.9l-11.7-34.8
				L235.2,225.4L235.2,225.4z"/>
		</g>
		<g>
			<polygon class="st5" points="256,223.6 269,221.2 269,235.5 277.5,233.8 277.5,219.5 290.6,217.1 290.4,258.8 277.5,261.2 
				277.5,245.7 268.9,247.4 268.9,262.9 255.8,265.3 			"/>
			<path class="st1" d="M288.3,219.8l-0.1,37.1l-8.5,1.6V243l-13.1,2.5V261l-8.5,1.6l0.1-37.1l8.5-1.6v14.3l13.1-2.5v-14.3
				L288.3,219.8 M292.8,214.4l-5.3,1L279,217l-3.7,0.7v3.7V232l-4.1,0.8v-8.9v-5.4l-5.3,1l-8.5,1.6l-3.7,0.7l0,3.7l-0.1,37.1l0,5.4
				l5.3-1l8.5-1.6l3.7-0.7V261v-11.8l4.1-0.8v10.1v5.4l5.3-1l8.5-1.6l3.7-0.7l0-3.7l0.1-37.1L292.8,214.4L292.8,214.4z"/>
		</g>
		<g>
			<path class="st5" d="M305.2,214.4l13-2.4v15.8c0,0.4,0,0.8,0,1.1l9.1-18.6l12.8-2.4l-0.1,41.7l-13,2.4v-15.9c0-0.4,0-0.8,0-1.1
				l-9.1,18.6L305,256L305.2,214.4z"/>
			<path class="st1" d="M337.8,210.6l-0.1,37.1l-8.5,1.6v-13.2c0-4.4,0.7-9.5,1.1-13.7h-0.2l-3.8,8.8l-10,20.4l-9,1.7l0.1-37
				l8.5-1.6v13.1c0,4.4-0.7,9.7-1.1,13.7h0.2l3.8-8.8l10-20.4L337.8,210.6 M342.3,205.2l-5.3,1l-9,1.7l-2.2,0.4l-1,2l-4.4,8.9v-4.5
				v-5.4l-5.3,1l-8.5,1.6l-3.7,0.7l0,3.7l-0.1,37l0,5.4l5.3-1l9-1.7l2.2-0.4l1-2l4.4-8.9v4.6v5.4l5.3-1l8.5-1.6l3.7-0.7l0-3.7
				l0.1-37.1L342.3,205.2L342.3,205.2z"/>
		</g>
		<g>
			<path class="st5" d="M359.2,229.7c-4-1.9-6.2-5.6-6.2-10.9c0-6.1,2.9-14,16.4-16.5l16.4-2.9l-0.1,41.6l-13,2.4v-13.4l-0.6,0.1
				l-8.1,14.9l-15.7,2.9L359.2,229.7z M371,213.3c-4.7,0.9-5.1,2.4-5.1,4c0,1.5,0.4,2.2,2.3,2.2c0.6,0,1.2-0.1,1.9-0.2l2.6-0.5V213
				L371,213.3z"/>
			<path class="st1" d="M383.6,202.1l-0.1,37.1l-8.5,1.6v-13.4l-4.3,0.8l-8.1,14.9l-9.8,1.8l9.8-16.5c-4.3-0.9-7.3-3.8-7.3-9.6
				c0-8.8,6.6-12.8,14.6-14.3L383.6,202.1 M368.3,221.8c0.7,0,1.5-0.1,2.3-0.3l4.4-0.8v-10.4l-4.4,0.8c-4.5,0.9-6.9,2.5-6.9,6.2
				C363.7,220.2,365.3,221.8,368.3,221.8 M388.1,196.7l-5.3,0.9l-13.7,2.4l0,0l0,0c-15.9,3-18.3,13-18.3,18.7
				c0,5.2,1.9,9.2,5.3,11.7l-7.2,12.1l-5.1,8.5l9.7-1.8l9.8-1.8l2.1-0.4l1-1.9l3.9-7.3v2.8v5.4l5.3-1l8.5-1.6l3.7-0.7l0-3.7
				l0.1-37.1L388.1,196.7L388.1,196.7z M368.2,217.3c0-0.5,0.1-0.6,0.2-0.7c0.2-0.2,0.7-0.5,2.1-0.9v1.2l-0.7,0.1l0,0l0,0
				C369.2,217.2,368.7,217.3,368.2,217.3C368.2,217.3,368.2,217.3,368.2,217.3L368.2,217.3z"/>
		</g>
	</g>
</g>
<g>
	<polygon class="st2" points="444.7,376.5 442.2,230.7 443.8,228.7 483.4,219.9 485.8,221.5 502.1,312.2 512.2,214.9 513.8,213.1 
		553.3,204.3 555.7,206.2 559.7,351.3 558.1,353.3 528.5,360.1 526.1,358.2 524.3,292.1 514.4,362 512.8,363.7 482.6,370.5 
		480.2,368.9 468.2,305.2 468.2,372.1 466.6,374.1 447.1,378.5 	"/>
	<path class="st1" d="M553.7,206.3l4,145.1l-29.6,6.7l-2.4-89.8l-13.3,93.4l-30.2,6.8l-16-84.6v88.2l-19.5,4.4l-2.5-145.8l39.6-8.8
		l18.8,104.5l11.6-111.3L553.7,206.3 M552.8,202.4l-39.5,8.8l-3.1,3.5l-8.7,83.3l-13.8-76.7l-4.8-3.2l-39.6,8.8l-3.1,4l2.5,145.8
		l4.9,3.8l19.5-4.4l3.1-3.9v-45.5l8.1,42.7l4.8,3.2l30.2-6.8l3.1-3.3l6.6-46.4l1.1,42.4l4.9,3.8l29.6-6.7l3.1-4l-4-145.1
		L552.8,202.4L552.8,202.4z"/>
</g>
<g>
	<polygon class="st0" points="-7.2,564.9 300.6,436.6 293.7,430.7 596.5,341.2 596.9,356 336.9,432.5 343.1,436.4 -5.5,569.1 	"/>
	<path class="st1" d="M594.3,344.2l0.3,10.1l-263,77.4l6.5,4.2L-6.3,567l311.1-129.7l-6.5-5.6L594.3,344.2 M598.6,338.2l-5.6,1.7
		l-296,87.5l-7.9,2.3l6.3,5.4l1,0.8L-8,562.8l3.3,8.4l344.4-131.1l8.3-3.2l-5.7-3.7l253.6-74.6l3.3-1l-0.1-3.5l-0.3-10.1
		L598.6,338.2L598.6,338.2z"/>
</g>
<g>
	<polygon class="st0" points="105.4,564.9 312.7,475.8 310,471.6 543.3,399.1 543.3,413.7 334.7,476.7 338,480.8 107.1,569.1 	"/>
	<path class="st1" d="M541.1,402.2v9.8l-210.3,63.5l3.5,4.3l-228,87.2l209.8-90.2l-2.6-3.9L541.1,402.2 M545.6,396.1l-5.8,1.8
		l-227.6,70.7l-5.7,1.8l2.9,4.4l-204.8,88.1l3.4,8.3l228-87.2l5.8-2.2l-3.2-3.9l203.9-61.6l3.2-1V412v-9.8V396.1L545.6,396.1z"/>
</g>
<path class="st6" d="M553.7,206.3"/>
<path class="st6" d="M13.7,326.3"/>
<path class="st7" d="M557.7,351.4"/>
<path class="st7" d="M15.4,473.9"/>
<path class="st8" d="M553.7,206.3"/>
<path class="st8" d="M13.7,326.3"/>
<path class="st6" d="M557.7,351.4"/>
<path class="st6" d="M15.4,473.9"/>
<path class="st6" d="M439,361.7"/>
<path class="st6" d="M-103.2,484.2"/>
<path class="st8" d="M413,257"/>
<path class="st8" d="M-127,377"/>
<path class="st8" d="M572.8,219.2"/>
<path class="st8" d="M32.8,339.2"/>
<g>
	<polygon class="st0" points="444.7,135.8 415.1,88.9 493.1,88.9 463.1,134.4 515.9,210.6 498.9,214.6 455.5,147.7 416.5,233.9 
		399.9,237.6 	"/>
	<path class="st1" d="M488.9,91.2l-28.5,43.3l51.8,74.7l-12.3,2.9l-44.7-69L414.9,232l-11.2,2.5l43.5-98.9l-28-44.4H488.9
		 M497.2,86.7h-8.3h-69.7H411l4.4,6.9l26.7,42.4l-42.5,96.7l-3.6,8.1l8.7-1.9l11.2-2.5l2.2-0.5l0.9-2l36.9-81.4l40.2,62.1l1.7,2.7
		l3.1-0.7l12.3-2.9l6.4-1.5l-3.8-5.4l-50.1-72.2l26.8-40.8L497.2,86.7L497.2,86.7z"/>
</g>
</svg>
